<mxfile host="app.diagrams.net" modified="2022-10-11T10:04:08.843Z" agent="5.0 (Windows NT 10.0; Win64; x64) AppleWebKit/537.36 (KHTML, like Gecko) Chrome/106.0.0.0 Safari/537.36" etag="hAhyLQexAY0FHuo9zXZc" version="20.3.0" type="github">
  <diagram id="eQsPHT9Uh_qtsqG_BhwN" name="Page-1">
    <mxGraphModel dx="1406" dy="792" grid="1" gridSize="10" guides="1" tooltips="1" connect="1" arrows="1" fold="1" page="1" pageScale="1" pageWidth="850" pageHeight="1100" math="0" shadow="0">
      <root>
        <mxCell id="0" />
        <mxCell id="1" parent="0" />
        <mxCell id="k0tY8qYlLfU_y4kBErJs-49" value="LLLP(Provider)" style="swimlane;horizontal=0;" vertex="1" parent="1">
          <mxGeometry x="40" y="90" width="790" height="240" as="geometry" />
        </mxCell>
        <mxCell id="k0tY8qYlLfU_y4kBErJs-52" value="" style="sketch=0;html=1;dashed=0;whitespace=wrap;fillColor=#2875E2;strokeColor=#ffffff;points=[[0.005,0.63,0],[0.1,0.2,0],[0.9,0.2,0],[0.5,0,0],[0.995,0.63,0],[0.72,0.99,0],[0.5,1,0],[0.28,0.99,0]];shape=mxgraph.kubernetes.icon;prIcon=api" vertex="1" parent="k0tY8qYlLfU_y4kBErJs-49">
          <mxGeometry x="70" y="50" width="120" height="90" as="geometry" />
        </mxCell>
        <mxCell id="k0tY8qYlLfU_y4kBErJs-53" value="&lt;b&gt;API to get Course List&lt;/b&gt;" style="text;html=1;strokeColor=none;fillColor=none;align=center;verticalAlign=middle;whiteSpace=wrap;rounded=0;" vertex="1" parent="k0tY8qYlLfU_y4kBErJs-49">
          <mxGeometry x="60" y="10" width="130" height="30" as="geometry" />
        </mxCell>
        <mxCell id="k0tY8qYlLfU_y4kBErJs-55" value="API should support Filters to &lt;br&gt;narrow down search result - &lt;br&gt;&quot;Subject&quot; , &quot;Skills&quot;, &quot;Language&quot;, &quot;Duration&quot;.&amp;nbsp;" style="text;html=1;strokeColor=none;fillColor=none;align=center;verticalAlign=middle;whiteSpace=wrap;rounded=0;" vertex="1" parent="k0tY8qYlLfU_y4kBErJs-49">
          <mxGeometry y="150" width="280" height="70" as="geometry" />
        </mxCell>
        <mxCell id="k0tY8qYlLfU_y4kBErJs-79" style="edgeStyle=orthogonalEdgeStyle;rounded=0;orthogonalLoop=1;jettySize=auto;html=1;" edge="1" parent="k0tY8qYlLfU_y4kBErJs-49" target="k0tY8qYlLfU_y4kBErJs-67">
          <mxGeometry relative="1" as="geometry">
            <mxPoint x="480" y="91" as="sourcePoint" />
          </mxGeometry>
        </mxCell>
        <mxCell id="k0tY8qYlLfU_y4kBErJs-64" value="" style="sketch=0;html=1;dashed=0;whitespace=wrap;fillColor=#2875E2;strokeColor=#ffffff;points=[[0.005,0.63,0],[0.1,0.2,0],[0.9,0.2,0],[0.5,0,0],[0.995,0.63,0],[0.72,0.99,0],[0.5,1,0],[0.28,0.99,0]];shape=mxgraph.kubernetes.icon;prIcon=api" vertex="1" parent="k0tY8qYlLfU_y4kBErJs-49">
          <mxGeometry x="337.5" y="55.5" width="140" height="100" as="geometry" />
        </mxCell>
        <mxCell id="k0tY8qYlLfU_y4kBErJs-65" value="&lt;b&gt;API to assign course to jobseeker&amp;nbsp;&lt;/b&gt;" style="text;html=1;strokeColor=none;fillColor=none;align=center;verticalAlign=middle;whiteSpace=wrap;rounded=0;" vertex="1" parent="k0tY8qYlLfU_y4kBErJs-49">
          <mxGeometry x="310" y="17" width="185" height="30" as="geometry" />
        </mxCell>
        <mxCell id="k0tY8qYlLfU_y4kBErJs-66" value="API will allow to tag jobseeker &lt;br&gt;to selected courses" style="text;html=1;strokeColor=none;fillColor=none;align=center;verticalAlign=middle;whiteSpace=wrap;rounded=0;" vertex="1" parent="k0tY8qYlLfU_y4kBErJs-49">
          <mxGeometry x="307.5" y="160" width="200" height="50" as="geometry" />
        </mxCell>
        <mxCell id="k0tY8qYlLfU_y4kBErJs-67" value="" style="sketch=0;outlineConnect=0;fontColor=#232F3E;gradientColor=none;fillColor=#BF0816;strokeColor=none;dashed=0;verticalLabelPosition=bottom;verticalAlign=top;align=center;html=1;fontSize=12;fontStyle=0;aspect=fixed;shape=mxgraph.aws4.email;" vertex="1" parent="k0tY8qYlLfU_y4kBErJs-49">
          <mxGeometry x="615.15" y="55.5" width="79.7" height="70.5" as="geometry" />
        </mxCell>
        <mxCell id="k0tY8qYlLfU_y4kBErJs-68" value="Jobseeker get email with LLLP system to take course and update status" style="text;html=1;strokeColor=none;fillColor=none;align=center;verticalAlign=middle;whiteSpace=wrap;rounded=0;" vertex="1" parent="k0tY8qYlLfU_y4kBErJs-49">
          <mxGeometry x="540" y="17" width="230" height="30" as="geometry" />
        </mxCell>
        <mxCell id="k0tY8qYlLfU_y4kBErJs-50" value="Maximus(Consumer)" style="swimlane;horizontal=0;" vertex="1" parent="1">
          <mxGeometry x="40" y="330" width="790" height="270" as="geometry" />
        </mxCell>
        <mxCell id="k0tY8qYlLfU_y4kBErJs-73" style="edgeStyle=orthogonalEdgeStyle;rounded=0;orthogonalLoop=1;jettySize=auto;html=1;exitX=0.431;exitY=0.02;exitDx=0;exitDy=0;exitPerimeter=0;" edge="1" parent="k0tY8qYlLfU_y4kBErJs-50" source="k0tY8qYlLfU_y4kBErJs-60">
          <mxGeometry relative="1" as="geometry">
            <mxPoint x="310" y="200" as="targetPoint" />
            <Array as="points">
              <mxPoint x="131" y="200" />
            </Array>
          </mxGeometry>
        </mxCell>
        <mxCell id="k0tY8qYlLfU_y4kBErJs-58" value="" style="outlineConnect=0;dashed=0;verticalLabelPosition=bottom;verticalAlign=top;align=center;html=1;shape=mxgraph.aws3.worker;fillColor=#D9A741;gradientColor=none;" vertex="1" parent="k0tY8qYlLfU_y4kBErJs-50">
          <mxGeometry x="90" y="63" width="80" height="80" as="geometry" />
        </mxCell>
        <mxCell id="k0tY8qYlLfU_y4kBErJs-59" value="&lt;b&gt;Service to read courses list with filters&lt;/b&gt;" style="text;html=1;strokeColor=none;fillColor=none;align=center;verticalAlign=middle;whiteSpace=wrap;rounded=0;" vertex="1" parent="k0tY8qYlLfU_y4kBErJs-50">
          <mxGeometry x="20" y="33" width="220" height="30" as="geometry" />
        </mxCell>
        <mxCell id="k0tY8qYlLfU_y4kBErJs-60" value="Carrier Coach should be able to filter course. Default filters will be made available in system" style="text;html=1;strokeColor=none;fillColor=none;align=center;verticalAlign=middle;whiteSpace=wrap;rounded=0;" vertex="1" parent="k0tY8qYlLfU_y4kBErJs-50">
          <mxGeometry x="10" y="143" width="280" height="50" as="geometry" />
        </mxCell>
        <mxCell id="k0tY8qYlLfU_y4kBErJs-75" value="" style="edgeStyle=orthogonalEdgeStyle;rounded=0;orthogonalLoop=1;jettySize=auto;html=1;" edge="1" parent="k0tY8qYlLfU_y4kBErJs-50" source="k0tY8qYlLfU_y4kBErJs-61" target="k0tY8qYlLfU_y4kBErJs-63">
          <mxGeometry relative="1" as="geometry" />
        </mxCell>
        <mxCell id="k0tY8qYlLfU_y4kBErJs-61" value="Carrier Coach Views list of courses as per Filter in Max360" style="rounded=1;whiteSpace=wrap;html=1;" vertex="1" parent="k0tY8qYlLfU_y4kBErJs-50">
          <mxGeometry x="314" y="160" width="180" height="73" as="geometry" />
        </mxCell>
        <mxCell id="k0tY8qYlLfU_y4kBErJs-63" value="Carrier Coach select courses as per action plan from list and assign" style="rounded=1;whiteSpace=wrap;html=1;" vertex="1" parent="k0tY8qYlLfU_y4kBErJs-50">
          <mxGeometry x="309" y="33" width="190" height="73" as="geometry" />
        </mxCell>
        <mxCell id="k0tY8qYlLfU_y4kBErJs-70" value="Max360 will read update of assigned courses to jobseeker and reflect in Max360 as per action plan" style="rounded=1;whiteSpace=wrap;html=1;" vertex="1" parent="k0tY8qYlLfU_y4kBErJs-50">
          <mxGeometry x="570" y="80" width="200" height="70" as="geometry" />
        </mxCell>
        <mxCell id="k0tY8qYlLfU_y4kBErJs-72" value="" style="edgeStyle=orthogonalEdgeStyle;rounded=0;orthogonalLoop=1;jettySize=auto;html=1;exitX=0.5;exitY=1;exitDx=0;exitDy=0;exitPerimeter=0;" edge="1" parent="1" source="k0tY8qYlLfU_y4kBErJs-52" target="k0tY8qYlLfU_y4kBErJs-59">
          <mxGeometry relative="1" as="geometry" />
        </mxCell>
        <mxCell id="k0tY8qYlLfU_y4kBErJs-78" style="edgeStyle=orthogonalEdgeStyle;rounded=0;orthogonalLoop=1;jettySize=auto;html=1;entryX=0.48;entryY=0.938;entryDx=0;entryDy=0;entryPerimeter=0;" edge="1" parent="1" source="k0tY8qYlLfU_y4kBErJs-63" target="k0tY8qYlLfU_y4kBErJs-64">
          <mxGeometry relative="1" as="geometry" />
        </mxCell>
        <mxCell id="k0tY8qYlLfU_y4kBErJs-80" style="edgeStyle=orthogonalEdgeStyle;rounded=0;orthogonalLoop=1;jettySize=auto;html=1;" edge="1" parent="1" source="k0tY8qYlLfU_y4kBErJs-67" target="k0tY8qYlLfU_y4kBErJs-70">
          <mxGeometry relative="1" as="geometry">
            <Array as="points">
              <mxPoint x="695" y="370" />
              <mxPoint x="695" y="370" />
            </Array>
          </mxGeometry>
        </mxCell>
      </root>
    </mxGraphModel>
  </diagram>
</mxfile>
